<svg width="66" height="45" viewBox="0 0 66 45" fill="none" xmlns="http://www.w3.org/2000/svg">
<path d="M0.44104 24.3663C0.44104 22.992 1.55513 21.8779 2.92943 21.8779C4.30374 21.8779 5.41783 22.992 5.41783 24.3663V44.2734H0.44104V24.3663Z" fill="currentColor"/>
<path d="M10.3947 3.21496C10.3947 1.84065 11.5087 0.726562 12.883 0.726562C14.2573 0.726562 15.3714 1.84065 15.3714 3.21496V44.2735H10.3947V3.21496Z" fill="currentColor"/>
<path d="M20.3482 19.3895C20.3482 18.0152 21.4623 16.9011 22.8366 16.9011C24.2109 16.9011 25.325 18.0152 25.325 19.3895V44.2735H20.3482V19.3895Z" fill="currentColor"/>
<path d="M30.3018 19.3895C30.3018 18.0152 31.4158 16.9011 32.7902 16.9011C34.1645 16.9011 35.2785 18.0152 35.2785 19.3895V44.2735H30.3018V19.3895Z" fill="currentColor"/>
<path d="M40.2554 8.19174C40.2554 6.81744 41.3695 5.70334 42.7438 5.70334C44.1181 5.70334 45.2322 6.81743 45.2322 8.19173V44.2734H40.2554V8.19174Z" fill="currentColor"/>
<path d="M50.2089 21.8779C50.2089 20.5036 51.323 19.3895 52.6973 19.3895C54.0716 19.3895 55.1857 20.5036 55.1857 21.8779V44.2734H50.2089V21.8779Z" fill="currentColor"/>
<path d="M60.1625 19.3895C60.1625 18.0152 61.2766 16.9011 62.6509 16.9011C64.0252 16.9011 65.1393 18.0152 65.1393 19.3895V44.2735H60.1625V19.3895Z" fill="currentColor"/>
</svg>
