<svg width="31" height="31" viewBox="0 0 31 31" fill="none" xmlns="http://www.w3.org/2000/svg">
<circle opacity="0.16" cx="15.6518" cy="15.4768" r="14.9304" fill="#FF4842"/>
<path d="M23.117 15.4768C23.117 15.0187 22.7456 14.6473 22.2875 14.6473C21.8294 14.6473 21.458 15.0187 21.458 15.4768V17.3846L17.9411 13.2372C17.679 12.9309 17.2345 12.8574 16.8877 13.0631L13.3459 15.228L9.65475 10.7986C9.46509 10.5704 9.16811 10.4608 8.87567 10.5109C8.58323 10.5611 8.33976 10.7635 8.23698 11.0418C8.1342 11.3201 8.18771 11.6322 8.37737 11.8603L12.5247 16.8371C12.7856 17.1508 13.2358 17.2281 13.5864 17.0196L17.1365 14.8879L20.4544 18.7947H18.1402C17.6821 18.7947 17.3107 19.166 17.3107 19.6241C17.3107 20.0822 17.6821 20.4536 18.1402 20.4536H22.2875C22.3896 20.4511 22.4905 20.4315 22.5861 20.3955L22.7022 20.3292C22.7455 20.3074 22.7871 20.2824 22.8266 20.2545C22.8721 20.2135 22.9112 20.166 22.9428 20.1135C22.9706 20.0767 22.9955 20.0379 23.0174 19.9974C23.0377 19.9525 23.0517 19.9051 23.0589 19.8564C23.0925 19.7832 23.1122 19.7045 23.117 19.6241V15.4768Z" fill="#FF4842"/>
</svg>
