<svg width="67" height="67" viewBox="0 0 67 67" fill="none" xmlns="http://www.w3.org/2000/svg">
<g opacity="0.2">
<path d="M33.5 27.2188C33.2208 27.2188 32.9696 27.163 32.6904 27.0513C31.9088 26.7442 31.4062 25.9625 31.4062 25.125V5.58337C31.4062 4.43879 32.3554 3.48962 33.5 3.48962C34.6446 3.48962 35.5938 4.43879 35.5938 5.58337V20.0721L37.6038 18.0621C38.4133 17.2525 39.7533 17.2525 40.5629 18.0621C41.3725 18.8717 41.3725 20.2117 40.5629 21.0213L34.9796 26.6046C34.5887 26.9955 34.0583 27.2188 33.5 27.2188Z" fill="#292D32"/>
<path d="M33.4999 27.2187C32.9695 27.2187 32.4391 27.0233 32.0204 26.6045L26.437 21.0212C25.6274 20.2116 25.6274 18.8716 26.437 18.062C27.2466 17.2524 28.5866 17.2524 29.3962 18.062L34.9795 23.6454C35.7891 24.4549 35.7891 25.7949 34.9795 26.6045C34.5608 27.0233 34.0304 27.2187 33.4999 27.2187Z" fill="#292D32"/>
<path d="M38.4134 49.552H28.5588C25.6276 49.552 23.0034 47.9329 21.6913 45.3087L18.4251 38.7762C18.3134 38.525 18.0622 38.3854 17.8109 38.3854H5.52759C4.383 38.3854 3.43384 37.4362 3.43384 36.2916C3.43384 35.147 4.383 34.1979 5.52759 34.1979H17.8388C19.7093 34.1979 21.3843 35.2308 22.2218 36.9058L25.488 43.4383C26.0743 44.6387 27.2747 45.3645 28.6147 45.3645H38.4693C39.8093 45.3645 41.0097 44.6387 41.5959 43.4383L44.8622 36.9058C45.6997 35.2308 47.3747 34.1979 49.2451 34.1979H61.4168C62.5613 34.1979 63.5105 35.147 63.5105 36.2916C63.5105 37.4362 62.5613 38.3854 61.4168 38.3854H49.2451C48.9659 38.3854 48.7426 38.525 48.6309 38.7762L45.3647 45.3087C43.9688 47.9329 41.3447 49.552 38.4134 49.552Z" fill="#292D32"/>
<path d="M41.8749 63.5104H25.1249C9.96617 63.5104 3.4895 57.0338 3.4895 41.875V30.7083C3.4895 17.6154 8.347 11.055 19.2345 9.46375C20.407 9.29625 21.4399 10.0779 21.6074 11.2225C21.7749 12.3671 20.9933 13.4279 19.8487 13.5954C11.0828 14.8796 7.677 19.6813 7.677 30.7083V41.875C7.677 54.7446 12.2553 59.3229 25.1249 59.3229H41.8749C54.7445 59.3229 59.3228 54.7446 59.3228 41.875V30.7083C59.3228 19.6813 55.917 14.8796 47.1512 13.5954C46.0066 13.4279 45.2249 12.3671 45.3924 11.2225C45.5599 10.0779 46.6208 9.29625 47.7653 9.46375C58.6528 11.055 63.5103 17.6154 63.5103 30.7083V41.875C63.5103 57.0338 57.0337 63.5104 41.8749 63.5104Z" fill="#292D32"/>
</g>
</svg>
