<svg width="71" height="73" viewBox="0 0 71 73" fill="none" xmlns="http://www.w3.org/2000/svg">
<path d="M38.4297 22.1638L26.7203 25.2365C22.4729 26.3511 20.6576 29.4037 21.7845 33.5223L25.6011 47.4716C26.7464 51.6577 29.8623 53.3584 34.1096 52.2439L45.819 49.1712C50.1348 48.0387 51.895 45.0585 50.7497 40.8723L46.9331 26.923C45.8062 22.8044 42.7455 21.0313 38.4297 22.1638Z" fill="url(#paint0_linear_2_7032)"/>
<g filter="url(#filter0_f_2_7032)">
<rect width="18" height="16" rx="8" transform="matrix(-0.263904 -0.964549 0.967252 -0.253818 30 47)" fill="#CECECE" fill-opacity="0.5"/>
</g>
<g filter="url(#filter1_b_2_7032)">
<path d="M49.0537 29H36.9478C32.5567 29 30 31.492 30 35.762V50.224C30 54.564 32.5567 57 36.9478 57H49.0537C53.5156 57 56 54.564 56 50.224V35.762C56 31.492 53.5156 29 49.0537 29Z" fill="#BEBEBE" fill-opacity="0.35"/>
<path d="M49.0537 28.5H36.9478C34.6593 28.5 32.7836 29.1508 31.4784 30.4215C30.1715 31.694 29.5 33.5266 29.5 35.762V50.224C29.5 52.4924 30.1704 54.3299 31.4792 55.5985C32.7858 56.8649 34.6623 57.5 36.9478 57.5H49.0537C51.3727 57.5 53.2506 56.8658 54.5494 55.5972C55.8499 54.3268 56.5 52.4885 56.5 50.224V35.762C56.5 33.5305 55.8489 31.6972 54.5502 30.4229C53.2528 29.1498 51.3757 28.5 49.0537 28.5Z" stroke="url(#paint1_linear_2_7032)" stroke-linecap="round" stroke-linejoin="round"/>
</g>
<g filter="url(#filter2_bd_2_7032)">
<path fill-rule="evenodd" clip-rule="evenodd" d="M37.2 35V35.0127C36.5369 35.0127 36 35.4586 36 36.0064C36 36.5541 36.5369 37 37.2 37H41.7985C42.4615 37 43 36.5541 43 35.9924C43 35.4459 42.4615 35 41.7985 35H37.2ZM50 42.0006C50 42.5516 49.4787 43 48.8383 43H37.1617C36.5198 43 36 42.5516 36 42.0006C36 41.4497 36.5198 41 37.1617 41H48.8383C49.4787 41 50 41.4497 50 42.0006ZM48.9586 49.9919H37.2944C36.848 50.0425 36.4166 49.8527 36.1785 49.5363C35.9405 49.2073 35.9405 48.7897 36.1785 48.4733C36.4166 48.1443 36.848 47.9671 37.2944 48.0051H48.9586C49.5522 48.0557 50 48.486 50 49.0048C50 49.5097 49.5522 49.9413 48.9586 49.9919Z" fill="url(#paint2_linear_2_7032)"/>
</g>
<defs>
<filter id="filter0_f_2_7032" x="0.0760498" y="0.342896" width="70.5736" height="71.8912" filterUnits="userSpaceOnUse" color-interpolation-filters="sRGB">
<feFlood flood-opacity="0" result="BackgroundImageFix"/>
<feBlend mode="normal" in="SourceGraphic" in2="BackgroundImageFix" result="shape"/>
<feGaussianBlur stdDeviation="13.5" result="effect1_foregroundBlur_2_7032"/>
</filter>
<filter id="filter1_b_2_7032" x="5" y="4" width="76" height="78" filterUnits="userSpaceOnUse" color-interpolation-filters="sRGB">
<feFlood flood-opacity="0" result="BackgroundImageFix"/>
<feGaussianBlur in="BackgroundImageFix" stdDeviation="12"/>
<feComposite in2="SourceAlpha" operator="in" result="effect1_backgroundBlur_2_7032"/>
<feBlend mode="normal" in="SourceGraphic" in2="effect1_backgroundBlur_2_7032" result="shape"/>
</filter>
<filter id="filter2_bd_2_7032" x="21" y="20" width="44" height="45" filterUnits="userSpaceOnUse" color-interpolation-filters="sRGB">
<feFlood flood-opacity="0" result="BackgroundImageFix"/>
<feGaussianBlur in="BackgroundImageFix" stdDeviation="7.5"/>
<feComposite in2="SourceAlpha" operator="in" result="effect1_backgroundBlur_2_7032"/>
<feColorMatrix in="SourceAlpha" type="matrix" values="0 0 0 0 0 0 0 0 0 0 0 0 0 0 0 0 0 0 127 0" result="hardAlpha"/>
<feOffset dx="5" dy="5"/>
<feGaussianBlur stdDeviation="5"/>
<feColorMatrix type="matrix" values="0 0 0 0 0.577356 0 0 0 0 0.359375 0 0 0 0 0.9375 0 0 0 0.5 0"/>
<feBlend mode="normal" in2="effect1_backgroundBlur_2_7032" result="effect2_dropShadow_2_7032"/>
<feBlend mode="normal" in="SourceGraphic" in2="effect2_dropShadow_2_7032" result="shape"/>
</filter>
<linearGradient id="paint0_linear_2_7032" x1="32.5743" y1="23.7004" x2="39.6808" y2="50.7819" gradientUnits="userSpaceOnUse">
<stop stop-color="#A9A9A9"/>
<stop offset="1" stop-color="#696969"/>
</linearGradient>
<linearGradient id="paint1_linear_2_7032" x1="34.1388" y1="32.262" x2="52.2329" y2="53.0713" gradientUnits="userSpaceOnUse">
<stop stop-color="white" stop-opacity="0.25"/>
<stop offset="1" stop-color="white" stop-opacity="0"/>
</linearGradient>
<linearGradient id="paint2_linear_2_7032" x1="49.0074" y1="37.7087" x2="33.4106" y2="38.1833" gradientUnits="userSpaceOnUse">
<stop stop-color="white"/>
<stop offset="1" stop-color="white" stop-opacity="0.2"/>
</linearGradient>
</defs>
</svg>
