<svg width="58" height="58" viewBox="0 0 58 58" fill="none" xmlns="http://www.w3.org/2000/svg">
  <g opacity="0.48">
    <circle cx="28.6" cy="29" r="26.6" stroke="#919EAB" stroke-opacity="0.16" stroke-width="4"/>

    <circle 
      cx="28.6" 
      cy="29" 
      r="26.6" 
      stroke="#54D62C" 
      stroke-width="4" 
      stroke-linecap="round" 
      stroke-linejoin="round" 
      stroke-dasharray="1000" 
      stroke-dashoffset="1000"
      id="progress"
    />
  </g>

  <path id="progress-icon" fill-rule="evenodd" clip-rule="evenodd" d="M19.0005 29C19.0005 23.4772 23.4776 19 29.0005 19C31.6527 19 34.1962 20.0536 36.0716 21.9289C37.9469 23.8043 39.0005 26.3478 39.0005 29C39.0005 34.5228 34.5233 39 29.0005 39C23.4776 39 19.0005 34.5228 19.0005 29ZM28.7305 32.61L33.3005 26.61V26.58C33.5184 26.2942 33.5673 25.9138 33.4288 25.5822C33.2902 25.2505 32.9853 25.018 32.6288 24.9722C32.2723 24.9264 31.9184 25.0742 31.7005 25.36L27.9205 30.36L26.2905 28.28C26.0708 27.9978 25.7172 27.8542 25.3629 27.9033C25.0086 27.9525 24.7075 28.1869 24.5729 28.5183C24.4383 28.8497 24.4908 29.2278 24.7105 29.51L27.1505 32.62C27.3413 32.8615 27.6327 33.0017 27.9405 33C28.25 32.9993 28.5417 32.8552 28.7305 32.61Z" fill="#54D62C"/>
</svg>
