<svg width="31" height="31" viewBox="0 0 31 31" fill="none" xmlns="http://www.w3.org/2000/svg">
<circle opacity="0.16" cx="15.7911" cy="15.4768" r="14.9304" fill="#54D62C"/>
<path d="M23.2563 11.3295C23.2641 11.2717 23.2641 11.2131 23.2563 11.1553C23.249 11.1066 23.2351 11.0592 23.2148 11.0143C23.1929 10.9738 23.1679 10.9349 23.1401 10.8982C23.1086 10.8457 23.0694 10.7982 23.024 10.7572L22.9245 10.6991C22.8766 10.6634 22.8234 10.6354 22.7669 10.6162H22.601C22.5504 10.5672 22.4914 10.5279 22.4268 10.5H18.2795C17.8214 10.5 17.45 10.8714 17.45 11.3295C17.45 11.7876 17.8214 12.159 18.2795 12.159H20.6269L17.309 16.0657L13.7257 13.934C13.3751 13.7255 12.9249 13.8029 12.664 14.1165L8.51667 19.0933C8.37561 19.2626 8.30771 19.481 8.32794 19.7004C8.34817 19.9198 8.45487 20.1222 8.6245 20.2628C8.77373 20.3865 8.96155 20.454 9.15536 20.4536C9.40207 20.454 9.63615 20.3446 9.79405 20.155L13.4852 15.7257L17.027 17.8491C17.3738 18.0548 17.8183 17.9813 18.0804 17.6749L21.5973 13.569V15.4768C21.5973 15.9349 21.9687 16.3063 22.4268 16.3063C22.8849 16.3063 23.2563 15.9349 23.2563 15.4768V11.3295Z" fill="#54D62C"/>
</svg>
