<svg width="36" height="36" viewBox="0 0 36 36" fill="none" xmlns="http://www.w3.org/2000/svg">
<rect x="5" y="5" width="26" height="26" rx="13" fill="#00AB55"/>
<path d="M17.0192 22C16.8292 21.9994 16.6479 21.9224 16.5186 21.7874L13.1859 18.3533C12.9265 18.0855 12.9403 17.6647 13.2167 17.4134C13.4932 17.1621 13.9277 17.1755 14.1871 17.4433L17.0124 20.3593L22.7795 14.2483C22.939 14.056 23.1954 13.9651 23.4454 14.0123C23.6954 14.0595 23.8978 14.237 23.971 14.4733C24.0443 14.7095 23.9763 14.9657 23.7945 15.1384L17.5267 21.7808C17.3986 21.9182 17.2172 21.9977 17.0261 22H17.0192Z" fill="white"/>
</svg>
